<svg xmlns="http://www.w3.org/2000/svg" viewBox="0 0 22 22" enable-background="new 0 0 22 22"><path fill="#111" d="M0 8.558c0 4.727 3.832 8.559 8.559 8.559 1.449 0 2.811-.363 4.006-.998l5.125 5.129-.001.001c.457.464 1.091.755 1.794.755 1.39 0 2.517-1.127 2.517-2.517 0-.703-.29-1.337-.755-1.794l.005-.005-5.127-5.131c.633-1.195.994-2.554.994-3.999.001-4.726-3.832-8.558-8.559-8.558s-8.558 3.832-8.558 8.558zm2.14 0c0-3.545 2.874-6.419 6.419-6.419s6.419 2.874 6.419 6.419-2.874 6.419-6.419 6.419c-3.545.001-6.419-2.874-6.419-6.419z"/></svg>